<svg width="23" height="23" viewBox="0 0 23 23" fill="none" xmlns="http://www.w3.org/2000/svg">
<rect width="23" height="23" fill="#1E1E1E"/>
<g clip-path="url(#clip0_0_1)">
<rect width="1440" height="1339" transform="translate(-748 -364)" fill="url(#paint0_linear_0_1)"/>
<rect x="-15.5" y="-11" width="171" height="45" rx="10" fill="#2F2F2F"/>
<g opacity="0.8" clip-path="url(#clip1_0_1)">
<path d="M11.5 0.5C17.579 0.5 22.5 5.42103 22.5 11.5C22.5 17.579 17.579 22.5 11.5 22.5C5.42103 22.5 0.5 17.579 0.5 11.5C0.5 5.42103 5.42103 0.5 11.5 0.5Z" fill="white"/>
<path d="M8.96711 7.26611L3.80664 8.58428L4.17917 10.0429L9.33964 8.72471L8.96711 7.26611ZM14.1059 7.28371L13.7338 8.74231L18.8942 10.0594L19.2668 8.60115L14.1059 7.28371ZM11.6738 17.4052C10.4 17.4052 9.06867 17.1738 7.79451 16.7683L8.25797 15.321C10.5738 16.0738 12.7738 16.0738 15.0893 15.321L15.5528 16.7683C14.279 17.2314 12.9473 17.4052 11.6735 17.4052" fill="black"/>
</g>
</g>
<defs>
<linearGradient id="paint0_linear_0_1" x1="720" y1="1339" x2="1352.74" y2="888.295" gradientUnits="userSpaceOnUse">
<stop stop-color="#202020"/>
<stop offset="1" stop-color="#131313"/>
</linearGradient>
<clipPath id="clip0_0_1">
<rect width="1440" height="1339" fill="white" transform="translate(-748 -364)"/>
</clipPath>
<clipPath id="clip1_0_1">
<rect width="22" height="22" fill="white" transform="translate(0.5 0.5)"/>
</clipPath>
</defs>
</svg>
