<svg width="22" height="23" viewBox="0 0 22 23" fill="none" xmlns="http://www.w3.org/2000/svg">
<g id="Frame" opacity="0.8" clip-path="url(#clip0_189_1686)">
<path id="Vector" d="M11 0.5C17.079 0.5 22 5.42103 22 11.5C22 17.579 17.079 22.5 11 22.5C4.92103 22.5 0 17.579 0 11.5C0 5.42103 4.92103 0.5 11 0.5Z" fill="black"/>
<path id="Vector_2" d="M8.46711 7.26611L3.30664 8.58428L3.67917 10.0429L8.83964 8.72471L8.46711 7.26611ZM13.6059 7.28371L13.2338 8.74231L18.3942 10.0594L18.7668 8.60115L13.6059 7.28371ZM11.1738 17.4052C9.90004 17.4052 8.56867 17.1738 7.29451 16.7683L7.75797 15.321C10.0738 16.0738 12.2738 16.0738 14.5893 15.321L15.0528 16.7683C13.779 17.2314 12.4473 17.4052 11.1735 17.4052" fill="white"/>
</g>
<defs>
<clipPath id="clip0_189_1686">
<rect width="22" height="22" fill="white" transform="translate(0 0.5)"/>
</clipPath>
</defs>
</svg>
