<?xml version="1.0" standalone="no"?>
<!DOCTYPE svg PUBLIC "-//W3C//DTD SVG 20010904//EN"
 "http://www.w3.org/TR/2001/REC-SVG-20010904/DTD/svg10.dtd">
<svg version="1.0" xmlns="http://www.w3.org/2000/svg"
 width="500.000000pt" height="500.000000pt" viewBox="0 0 500.000000 500.000000"
 preserveAspectRatio="xMidYMid meet">
<metadata>
Created by potrace 1.14, written by Peter Selinger 2001-2017
</metadata>
<g transform="translate(0.000000,500.000000) scale(0.100000,-0.100000)"
fill="#000000" stroke="none">
<path d="M2315 4629 c-184 -13 -455 -79 -608 -148 -81 -37 -168 -79 -187 -90
-8 -6 -44 -27 -80 -47 -36 -21 -67 -41 -70 -44 -9 -13 -50 -31 -51 -23 -1 9
-6 135 -8 196 l-1 38 -99 -118 c-101 -121 -234 -276 -409 -478 -33 -38 -59
-72 -56 -76 2 -3 45 -10 96 -13 51 -4 107 -9 123 -11 17 -3 62 -7 100 -10 39
-3 84 -8 100 -10 17 -2 64 -7 105 -10 41 -4 86 -8 100 -10 14 -2 62 -7 108
-10 46 -4 91 -8 100 -10 9 -1 20 -1 24 2 8 4 -39 75 -104 158 l-39 49 33 28
c18 15 37 28 41 28 5 0 29 14 53 31 149 102 409 198 637 235 15 2 42 7 60 10
57 10 320 13 377 4 30 -5 75 -11 100 -14 157 -20 385 -98 550 -188 82 -45 200
-125 200 -136 0 -4 -17 -28 -37 -54 -21 -26 -55 -70 -76 -99 -37 -52 -38 -53
-17 -61 12 -4 25 -6 28 -4 4 2 39 7 77 11 39 4 81 8 95 10 14 1 57 5 95 9 39
4 108 11 155 16 47 5 108 12 135 15 28 3 68 7 90 10 22 3 64 7 94 10 30 2 58
8 62 12 4 4 -96 132 -223 283 -126 151 -239 288 -251 303 -60 77 -67 83 -68
62 -6 -126 -10 -192 -14 -202 -3 -9 -32 5 -87 41 -137 88 -406 209 -515 231
-10 2 -54 12 -99 24 -44 11 -98 23 -120 26 -21 4 -50 8 -64 11 -100 17 -311
23 -455 13z"/>
<path d="M2292 3873 c-168 -19 -355 -79 -502 -160 -332 -182 -594 -537 -676
-913 -27 -126 -28 -140 -29 -280 0 -149 8 -240 25 -285 6 -17 11 -32 10 -35 0
-3 5 -27 11 -55 48 -203 195 -457 348 -604 57 -54 176 -151 185 -151 4 0 22
-11 39 -24 44 -33 197 -108 287 -141 69 -24 196 -55 295 -70 91 -14 292 -20
336 -11 13 3 44 8 69 11 58 7 73 10 145 29 33 9 67 19 75 21 49 13 145 53 210
87 69 37 200 119 226 143 6 5 33 28 60 49 61 49 154 154 214 243 55 82 172
314 185 371 12 46 37 160 41 187 11 60 13 331 3 385 -6 30 -12 69 -14 85 -21
143 -117 385 -205 516 -87 129 -171 221 -285 315 -281 229 -662 333 -1053 287z"/>
<path d="M3386 1311 l-29 -6 48 -60 c27 -33 55 -66 62 -73 21 -22 34 -52 28
-62 -20 -33 -263 -160 -405 -213 -141 -52 -265 -82 -438 -103 -92 -12 -327 -6
-427 10 -248 41 -449 116 -676 252 -84 51 -88 57 -52 102 66 83 103 134 103
144 0 8 -134 2 -150 -7 -3 -2 -39 -6 -80 -10 -41 -3 -86 -8 -100 -10 -23 -4
-182 -22 -275 -31 -22 -2 -74 -7 -115 -10 -41 -3 -86 -8 -100 -11 -14 -4 -28
-6 -32 -5 -23 5 -7 -15 116 -148 23 -25 97 -108 166 -185 69 -77 139 -156 157
-175 17 -19 42 -48 55 -65 12 -16 33 -41 45 -55 l23 -25 1 25 c1 14 1 69 1
123 0 53 3 97 7 97 3 0 22 -10 41 -21 173 -106 468 -232 620 -265 19 -4 37 -8
40 -9 43 -10 125 -26 160 -30 25 -3 58 -8 74 -12 35 -7 452 -7 463 0 4 3 37 8
73 12 36 4 69 9 73 12 5 3 23 7 40 10 177 25 544 170 706 279 19 13 37 22 39
19 2 -2 6 -54 8 -116 2 -61 6 -114 10 -118 3 -3 18 9 33 28 22 29 70 86 177
211 100 117 242 277 302 341 28 31 52 61 52 67 0 7 -12 13 -27 13 -16 1 -41 3
-58 5 -16 2 -57 5 -90 8 -53 4 -198 18 -320 31 -22 3 -62 7 -90 10 -27 2 -70
7 -95 10 -25 3 -62 7 -83 10 -21 2 -41 6 -45 8 -4 2 -20 1 -36 -2z"/>
</g>
</svg>
