<?xml version="1.0" encoding="UTF-8"?><svg id="Still" xmlns="http://www.w3.org/2000/svg" viewBox="0 0 800 800"><defs><style>.cls-1{fill:#d6d4d4;}.cls-1,.cls-2,.cls-3,.cls-4,.cls-5,.cls-6,.cls-7{stroke-width:0px;}.cls-2{fill:#000;}.cls-3{fill:#7b7778;}.cls-4{fill:#423d3c;}.cls-5{fill:#625a58;}.cls-6{fill:#a29f9f;}.cls-7{fill:#fff;}</style></defs><path class="cls-7" d="M5,399.95c0,44.86,7.69,90.48,23.92,135.08,4.62,12.7,9.83,25.02,15.58,36.94l472.62-172.02H5Z"/><path class="cls-1" d="M44.5,571.97c25.89,53.67,62.77,99.21,106.87,134.88l365.75-306.9L44.5,571.97Z"/><path class="cls-6" d="M296.99,781.24l220.14-381.29-365.75,306.9c42.87,34.67,92.56,60,145.61,74.39Z"/><path class="cls-3" d="M447.98,792.06l69.14-392.12-220.14,381.29c48.41,13.13,99.62,17.15,151,10.83Z"/><path class="cls-5" d="M579.2,751.96l-62.07-352.02-69.14,392.12c29.16-3.59,58.37-10.51,87.15-20.99,15.25-5.55,29.95-11.95,44.06-19.11Z"/><path class="cls-4" d="M678.76,679.91l-161.63-279.96,62.07,352.02c37.51-19.03,70.91-43.5,99.56-72.06Z"/><path class="cls-2" d="M517.13,399.95l161.59,279.87c71.83-71.52,116.29-170.5,116.29-279.87,0-218.12-176.82-394.95-394.95-394.95S5.1,181.82,5.1,399.95h512.02Z"/></svg>